<?xml version="1.0" encoding="UTF-8"?>
<svg version="1.1" xmlns="http://www.w3.org/2000/svg" width="170" height="80">
<path d="M0 0 C0.74886475 0.00523682 1.49772949 0.01047363 2.26928711 0.01586914 C3.07817383 0.0190918 3.88706055 0.02231445 4.72045898 0.02563477 C5.5705957 0.03401367 6.42073242 0.04239258 7.29663086 0.05102539 C8.15063477 0.05553711 9.00463867 0.06004883 9.88452148 0.06469727 C12.00108749 0.07652166 14.11761771 0.0944577 16.23413086 0.11352539 C18.64607895 7.05964616 20.6017486 14.05377012 22.42163086 21.17602539 C22.83058594 22.76060547 22.83058594 22.76060547 23.24780273 24.37719727 C23.91273339 26.95526175 24.57478053 29.53402918 25.23413086 32.11352539 C25.28311523 31.27047852 25.33209961 30.42743164 25.38256836 29.55883789 C25.45733398 28.46313477 25.53209961 27.36743164 25.60913086 26.23852539 C25.67874023 25.14797852 25.74834961 24.05743164 25.82006836 22.93383789 C26.23413086 20.11352539 26.23413086 20.11352539 28.23413086 18.11352539 C32.8735284 17.45253596 37.55479078 17.32171637 42.23413086 17.11352539 C43.68819336 17.03231445 43.68819336 17.03231445 45.17163086 16.94946289 C51.60834078 16.73359762 55.57786485 17.8766698 60.60913086 22.11352539 C62.23413086 24.11352539 62.23413086 24.11352539 62.23413086 27.11352539 C62.89413086 27.11352539 63.55413086 27.11352539 64.23413086 27.11352539 C64.44038086 26.37102539 64.64663086 25.62852539 64.85913086 24.86352539 C67.06200108 20.45778495 70.66586038 18.63628222 75.23413086 17.11352539 C81.99122121 16.55402109 87.22752878 16.91000428 93.23413086 20.11352539 C93.23413086 19.45352539 93.23413086 18.79352539 93.23413086 18.11352539 C96.00600074 18.00564721 98.77368623 17.92629212 101.54663086 17.86352539 C102.33231445 17.83000977 103.11799805 17.79649414 103.92749023 17.76196289 C106.10073633 17.72497147 108.09382987 17.72984905 110.23413086 18.11352539 C112.27709961 20.12915039 112.27709961 20.12915039 113.23413086 22.11352539 C113.89413086 20.79352539 114.55413086 19.47352539 115.23413086 18.11352539 C118.04669367 18.08668227 120.85900327 18.06676351 123.67163086 18.05102539 C124.47407227 18.04264648 125.27651367 18.03426758 126.10327148 18.02563477 C128.14708307 18.01701109 130.19096988 18.06124389 132.23413086 18.11352539 C132.56413086 18.44352539 132.89413086 18.77352539 133.23413086 19.11352539 C132.73893407 25.56705774 130.38598136 30.18927468 127.41381836 35.83227539 C125.59928435 40.87932364 126.45819332 44.40904209 128.64428711 49.21118164 C129.74757426 51.19083873 130.85174389 53.17000425 131.95678711 55.14868164 C133.35896778 58.40328448 133.55477004 60.60685242 133.23413086 64.11352539 C131.17679829 66.17085796 127.17131597 65.43472707 124.35913086 65.48852539 C123.25891602 65.54459961 123.25891602 65.54459961 122.13647461 65.60180664 C119.99194336 65.63696289 119.99194336 65.63696289 116.23413086 65.11352539 C114.22631836 62.59008789 114.22631836 62.59008789 113.23413086 60.11352539 C112.9440918 60.92176758 112.65405273 61.73000977 112.35522461 62.56274414 C110.23413086 65.11352539 110.23413086 65.11352539 108.21118164 65.61987305 C105.56463699 65.83737552 102.9521139 65.91036562 100.29663086 65.92602539 C99.34892822 65.94826172 98.40122559 65.97049805 97.42480469 65.9934082 C95.54341402 66.03395472 93.6617632 66.06399244 91.7800293 66.08276367 C89.67285372 66.10822437 87.56630742 66.18085988 85.46069336 66.26586914 C77.78435428 66.51253813 72.26758493 65.70460074 66.23413086 60.55102539 C64.23413086 58.11352539 64.23413086 58.11352539 64.23413086 56.11352539 C63.57413086 56.11352539 62.91413086 56.11352539 62.23413086 56.11352539 C62.15163086 56.69102539 62.06913086 57.26852539 61.98413086 57.86352539 C60.98501934 60.86085996 59.68379057 62.12731481 57.23413086 64.11352539 C53.0697872 65.92410959 49.728671 66.18864305 45.23413086 66.11352539 C45.24573242 67.04036133 45.25733398 67.96719727 45.26928711 68.92211914 C45.27831055 70.1196582 45.28733398 71.31719727 45.29663086 72.55102539 C45.30823242 73.74598633 45.31983398 74.94094727 45.33178711 76.17211914 C45.23413086 79.11352539 45.23413086 79.11352539 44.23413086 80.11352539 C41.37145519 80.18677707 38.53341186 80.20590744 35.67163086 80.17602539 C34.86532227 80.17151367 34.05901367 80.16700195 33.22827148 80.16235352 C31.2301933 80.15053057 29.23215303 80.13259453 27.23413086 80.11352539 C25.79205145 77.22936656 26.14018199 74.69631011 26.17163086 71.48852539 C26.1806543 70.30000977 26.18967773 69.11149414 26.19897461 67.88696289 C26.21057617 66.97172852 26.22217773 66.05649414 26.23413086 65.11352539 C22.27413086 65.11352539 18.31413086 65.11352539 14.23413086 65.11352539 C11.6764863 59.75465107 10.30247034 54.49725497 9.07788086 48.68774414 C8.42263 45.79293601 8.42263 45.79293601 5.23413086 44.11352539 C5.13100586 45.18602539 5.02788086 46.25852539 4.92163086 47.36352539 C3.07467902 62.27297723 3.07467902 62.27297723 0.23413086 65.11352539 C-2.42409571 65.24010761 -5.04474338 65.29872753 -7.70336914 65.30102539 C-8.44522461 65.31327148 -9.18708008 65.32551758 -9.95141602 65.33813477 C-11.89100544 65.34341017 -13.83010624 65.23541441 -15.76586914 65.11352539 C-16.42586914 64.45352539 -17.08586914 63.79352539 -17.76586914 63.11352539 C-17.52368164 60.51196289 -17.52368164 60.51196289 -16.89086914 57.48852539 C-16.68719727 56.48563477 -16.48352539 55.48274414 -16.27368164 54.44946289 C-16.10610352 53.67860352 -15.93852539 52.90774414 -15.76586914 52.11352539 C-16.38075195 51.98075195 -16.99563477 51.84797852 -17.62915039 51.71118164 C-20.71171031 50.84896652 -21.85573248 49.68232987 -23.76586914 47.11352539 C-25.9882539 39.19627967 -23.28752033 32.68904319 -19.41821289 25.66821289 C-16.383311 20.73096725 -16.383311 20.73096725 -14.76586914 19.11352539 C-12.09528063 18.97237378 -9.44154676 19.07105432 -6.76586914 19.11352539 C-6.66274414 17.99977539 -6.55961914 16.88602539 -6.45336914 15.73852539 C-4.54676958 0.2923058 -4.54676958 0.2923058 0 0 Z M45.23413086 33.11352539 C45.23413086 38.72352539 45.23413086 44.33352539 45.23413086 50.11352539 C47.04112051 46.49954609 47.50990051 45.37589492 47.48413086 41.61352539 C47.48928711 40.86071289 47.49444336 40.10790039 47.49975586 39.33227539 C47.31208754 36.70656759 47.31208754 36.70656759 45.23413086 33.11352539 Z M99.23413086 38.11352539 C99.23413086 40.09352539 99.23413086 42.07352539 99.23413086 44.11352539 C99.89413086 42.79352539 100.55413086 41.47352539 101.23413086 40.11352539 C100.57413086 39.45352539 99.91413086 38.79352539 99.23413086 38.11352539 Z M80.23413086 49.11352539 C80.56413086 49.77352539 80.89413086 50.43352539 81.23413086 51.11352539 C83.78354459 51.4259391 86.23774599 51.6265596 88.79663086 51.73852539 C89.86300781 51.7965332 89.86300781 51.7965332 90.95092773 51.85571289 C92.71155511 51.95024322 94.47280813 52.03298356 96.23413086 52.11352539 C96.56413086 51.12352539 96.89413086 50.13352539 97.23413086 49.11352539 C91.62413086 49.11352539 86.01413086 49.11352539 80.23413086 49.11352539 Z " fill="#FBF6F5" transform="translate(30.765869140625,-0.113525390625)"/>
<path d="M0 0 C9 0 9 0 11 1 C11.66 0.67 12.32 0.34 13 0 C18.03247344 -0.49433314 22.48892461 -0.81849917 27 1.625 C31.91380178 7.46013961 32.49751297 12.53159444 32.4375 19.875 C32.45748047 20.73480469 32.47746094 21.59460938 32.49804688 22.48046875 C32.49350253 28.46991653 31.37700019 32.99902839 28 38 C24.29125581 41.39085183 20.78807913 41.29992765 15.98828125 41.203125 C14 41 14 41 12 40 C12 45.28 12 50.56 12 56 C8.37 56 4.74 56 1 56 C0.67 50.72 0.34 45.44 0 40 C-0.33 40.33 -0.66 40.66 -1 41 C-3.01964199 41.07244053 -5.04167124 41.08377188 -7.0625 41.0625 C-8.71958984 41.04896484 -8.71958984 41.04896484 -10.41015625 41.03515625 C-11.26480469 41.02355469 -12.11945312 41.01195312 -13 41 C-13.50249143 38.70887834 -14.00192117 36.41708499 -14.5 34.125 C-14.7784375 32.84882812 -15.056875 31.57265625 -15.34375 30.2578125 C-16 27 -16 27 -16 25 C-13.03 25.33 -10.06 25.66 -7 26 C-7 25.34 -7 24.68 -7 24 C-8.66289063 23.58427734 -8.66289063 23.58427734 -10.359375 23.16015625 C-23 20 -23 20 -24.98364258 19.44750977 C-27.10064974 18.97766183 -28.98589005 18.87067174 -31.15234375 18.8671875 C-31.92900391 18.86589844 -32.70566406 18.86460938 -33.50585938 18.86328125 C-34.30830078 18.86714844 -35.11074219 18.87101562 -35.9375 18.875 C-37.13536133 18.86919922 -37.13536133 18.86919922 -38.35742188 18.86328125 C-42.36995566 18.86993002 -46.08442668 19.00330861 -50 20 C-49.45276317 16.62537285 -48.9451 14.91765 -47 12 C-46.30341637 10.34561387 -45.63903117 8.67745682 -45 7 C-44.33333333 5.33333333 -43.66666667 3.66666667 -43 2 C-37.34224053 1.41065006 -34.36097845 2.55365671 -29.6015625 5.61328125 C-28 7 -28 7 -27 10 C-24.55160153 11.58238948 -24.55160153 11.58238948 -21.625 13 C-16.29503688 15.70013963 -16.29503688 15.70013963 -14.56640625 17.45703125 C-12.18302523 19.8047507 -9.25425065 21.1604094 -6.3125 22.6875 C-4.229375 23.780625 -2.14625 24.87375 0 26 C0 17.42 0 8.84 0 0 Z M16 12 C16 17.61 16 23.22 16 29 C17.80698965 25.3860207 18.27576965 24.26236953 18.25 20.5 C18.25515625 19.7471875 18.2603125 18.994375 18.265625 18.21875 C18.07795668 15.5930422 18.07795668 15.5930422 16 12 Z " fill="#E32026" transform="translate(60,21)"/>
<path d="M0 0 C4.44531086 4.14222148 6.5065347 8.51525694 6.9921875 14.59375 C6.99903664 17.25121766 6.88438362 19.90842346 6.75 22.5625 C0.15 22.5625 -6.45 22.5625 -13.25 22.5625 C-11.9784644 29.15779756 -11.9784644 29.15779756 -9.25 31.5625 C-6.88490639 31.86309943 -4.50558119 32.05765012 -2.125 32.1875 C-0.84367187 32.26226562 0.43765625 32.33703125 1.7578125 32.4140625 C2.74523437 32.46304688 3.73265625 32.51203125 4.75 32.5625 C4.75 34.5425 4.75 36.5225 4.75 38.5625 C1.11445419 39.7743486 -2.27407752 39.8234802 -6.0625 39.875 C-7.11147461 39.91850586 -7.11147461 39.91850586 -8.18164062 39.96289062 C-13.3236757 40.02542239 -16.16099917 38.92088356 -20.25 35.5625 C-25.4003343 28.45859062 -25.43855695 19.02450874 -24.25 10.5625 C-22.293135 5.2929421 -19.63626702 2.40966318 -14.875 -0.5 C-9.38022314 -1.92106298 -5.37255097 -2.37632062 0 0 Z " fill="#E22429" transform="translate(120.25,22.4375)"/>
<path d="M0 0 C3.96 0 7.92 0 12 0 C13.65 2.97 15.3 5.94 17 9 C18.32 6.03 19.64 3.06 21 0 C24.96 0 28.92 0 33 0 C31.85731727 3.94744943 30.29702784 7.30284989 28.3125 10.875 C26.47161408 14.57875257 25.27588741 17.42253819 26.13671875 21.6484375 C27.84419508 26.29957212 30.17630382 30.65948383 32.50390625 35.0234375 C34 38 34 38 34 40 C30.04 40 26.08 40 22 40 C19.525 34.555 19.525 34.555 17 29 C15.02 32.63 13.04 36.26 11 40 C7.04 40 3.08 40 -1 40 C3.75 29.125 3.75 29.125 6 28 C8.21157893 25.13257352 8.91790185 22.60775774 9 19 C7.1499445 13.01076504 3.98618432 7.48471204 1 2 C0.67 1.34 0.34 0.68 0 0 Z " fill="#E32328" transform="translate(127,22)"/>
<path d="M0 0 C0.79921875 0.00902344 1.5984375 0.01804688 2.421875 0.02734375 C3.02515625 0.03894531 3.6284375 0.05054688 4.25 0.0625 C4.48074219 1.04605469 4.71148437 2.02960937 4.94921875 3.04296875 C7.69184795 14.72195059 10.46628804 26.39324818 13.25 38.0625 C7.79137934 36.03971327 3.07359702 33.54044455 -0.75 29.0625 C-1.77305516 25.34955836 -1.92337281 21.89750663 -1.75 18.0625 C-2.41 18.0625 -3.07 18.0625 -3.75 18.0625 C-4.08 20.3725 -4.41 22.6825 -4.75 25.0625 C-7.72 23.0825 -10.69 21.1025 -13.75 19.0625 C-12.89285714 8.34821429 -12.89285714 8.34821429 -10.75 4.0625 C-10.09 4.0625 -9.43 4.0625 -8.75 4.0625 C-8.75 3.0725 -8.75 2.0825 -8.75 1.0625 C-5.75519083 0.1901588 -3.11424089 -0.04579766 0 0 Z " fill="#E4242A" transform="translate(40.75,2.9375)"/>
<path d="M0 0 C5.65775947 -0.58934994 8.63902155 0.55365671 13.3984375 3.61328125 C15 5 15 5 16 8 C18.44839847 9.58238948 18.44839847 9.58238948 21.375 11 C24.80305674 12.73664088 27.33716693 14.26500343 30 17 C31.53545874 17.9414298 33.10021774 18.83634864 34.6875 19.6875 C35.49574219 20.12449219 36.30398437 20.56148437 37.13671875 21.01171875 C37.75160156 21.33785156 38.36648437 21.66398437 39 22 C35.65765236 23.11411588 35.12320425 22.93047997 31.96484375 21.78515625 C31.16377197 21.5106665 30.3627002 21.23617676 29.53735352 20.95336914 C28.67940186 20.65938232 27.8214502 20.36539551 26.9375 20.0625 C15.79029326 16.45727713 4.53685494 15.26818112 -7 18 C-6.45276317 14.62537285 -5.9451 12.91765 -4 10 C-3.30341637 8.34561387 -2.63903117 6.67745682 -2 5 C-1.33333333 3.33333333 -0.66666667 1.66666667 0 0 Z " fill="#4D824E" transform="translate(17,23)"/>
<path d="M0 0 C9 0 9 0 13 2 C8.7961068 3.51340155 7.04216399 2.72030914 2 2 C2 19.82 2 37.64 2 56 C1.67 56 1.34 56 1 56 C0.67 50.72 0.34 45.44 0 40 C-0.495 40.495 -0.495 40.495 -1 41 C-3.01964199 41.07244053 -5.04167124 41.08377188 -7.0625 41.0625 C-8.71958984 41.04896484 -8.71958984 41.04896484 -10.41015625 41.03515625 C-11.26480469 41.02355469 -12.11945312 41.01195312 -13 41 C-13.50249143 38.70887834 -14.00192117 36.41708499 -14.5 34.125 C-14.91765625 32.21074219 -14.91765625 32.21074219 -15.34375 30.2578125 C-16 27 -16 27 -16 25 C-13.70839681 24.97307516 -11.41670454 24.95363876 -9.125 24.9375 C-7.84882812 24.92589844 -6.57265625 24.91429688 -5.2578125 24.90234375 C-2 25 -2 25 0 26 C0 17.42 0 8.84 0 0 Z " fill="#EFCFC7" transform="translate(60,21)"/>
<path d="M0 0 C0.268125 0.78375 0.53625 1.5675 0.8125 2.375 C1.84814432 5.28114923 1.84814432 5.28114923 5 7 C5.66 5.02 6.32 3.04 7 1 C10.63 1 14.26 1 18 1 C16.68 7.6 15.36 14.2 14 21 C10.04 21 6.08 21 2 21 C2.66 17.04 3.32 13.08 4 9 C3.071875 8.731875 2.14375 8.46375 1.1875 8.1875 C-1.76366897 7.0880449 -3.19132029 6.51205515 -5 4 C-5 3.01 -5 2.02 -5 1 C-3 0 -3 0 0 0 Z " fill="#E6252B" transform="translate(15,41)"/>
<path d="M0 0 C2.625 0.3125 2.625 0.3125 4.265625 1.7734375 C6.28878741 5.55233281 6.06100593 9.03042333 6 13.25 C6.01160156 14.04857422 6.02320312 14.84714844 6.03515625 15.66992188 C6.01206032 20.31605329 5.73624707 23.60122671 2.625 27.3125 C0 27.6875 0 27.6875 -2.375 27.3125 C-4.12045605 25.56704395 -3.5052316 23.15125783 -3.5078125 20.78125 C-3.50910156 19.66105469 -3.51039062 18.54085937 -3.51171875 17.38671875 C-3.50785156 16.20722656 -3.50398438 15.02773438 -3.5 13.8125 C-3.50386719 12.63300781 -3.50773437 11.45351563 -3.51171875 10.23828125 C-3.51042969 9.11808594 -3.50914063 7.99789062 -3.5078125 6.84375 C-3.50668457 5.80798828 -3.50555664 4.77222656 -3.50439453 3.70507812 C-3.3303101 0.48615841 -3.1840874 0.41895887 0 0 Z M0.625 5.3125 C0.625 10.9225 0.625 16.5325 0.625 22.3125 C2.43198965 18.6985207 2.90076965 17.57486953 2.875 13.8125 C2.88015625 13.0596875 2.8853125 12.306875 2.890625 11.53125 C2.70295668 8.9055422 2.70295668 8.9055422 0.625 5.3125 Z " fill="#FAF4F4" transform="translate(75.375,27.6875)"/>
<path d="M0 0 C1.45880109 0.14107747 2.91703551 0.28802415 4.375 0.4375 C5.59316406 0.55931641 5.59316406 0.55931641 6.8359375 0.68359375 C9 1 9 1 11 2 C11.62669199 4.16467461 12.15427374 6.35864524 12.625 8.5625 C12.88539062 9.76003906 13.14578125 10.95757812 13.4140625 12.19140625 C13.60742188 13.11824219 13.80078125 14.04507813 14 15 C10.04 15 6.08 15 2 15 C0.2520497 9.75614911 -0.19392201 5.52677733 0 0 Z " fill="#E42429" transform="translate(45,47)"/>
<path d="M0 0 C2.31 0 4.62 0 7 0 C6.34 0.66 5.68 1.32 5 2 C5.66 2.66 6.32 3.32 7 4 C5.68 4 4.36 4 3 4 C3 5.32 3 6.64 3 8 C7.455 8.99 7.455 8.99 12 10 C12 10.33 12 10.66 12 11 C10.35 11 8.7 11 7 11 C7 12.32 7 13.64 7 15 C0.07 16.485 0.07 16.485 -7 18 C-6 13 -6 13 -4 10 C-3.30341637 8.34561387 -2.63903117 6.67745682 -2 5 C-1.33333333 3.33333333 -0.66666667 1.66666667 0 0 Z " fill="#BBC66D" transform="translate(17,23)"/>
<path d="M0 0 C1.31322788 0.97819024 2.62556152 1.9575811 3.9375 2.9375 C4.66839844 3.48277344 5.39929688 4.02804688 6.15234375 4.58984375 C8 6 8 6 9 7 C9.66 5.02 10.32 3.04 11 1 C11.66 1 12.32 1 13 1 C14.15764225 3.3152845 14.03193167 4.68226051 14.0625 7.25 C14.34818392 10.30878815 14.62746339 11.61023152 16.7734375 13.85546875 C18.79987609 15.33689046 20.8712055 16.67222429 23 18 C23.66 18.66 24.32 19.32 25 20 C23.25 20.6875 23.25 20.6875 21 21 C19.1875 19.875 19.1875 19.875 17 18 C12.84720585 14.85240541 8.74947691 12.20097711 4 10 C4.33 9.34 4.66 8.68 5 8 C3.02 7.01 1.04 6.02 -1 5 C-0.67 3.35 -0.34 1.7 0 0 Z " fill="#F1E6E3" transform="translate(26,20)"/>
<path d="M0 0 C1.20366211 0.00483398 1.20366211 0.00483398 2.43164062 0.00976562 C3.68170898 0.02233398 3.68170898 0.02233398 4.95703125 0.03515625 C5.80201172 0.03966797 6.64699219 0.04417969 7.51757812 0.04882812 C9.6015928 0.06060222 11.68557102 0.07853735 13.76953125 0.09765625 C13.76953125 0.75765625 13.76953125 1.41765625 13.76953125 2.09765625 C10.13953125 2.09765625 6.50953125 2.09765625 2.76953125 2.09765625 C2.43953125 4.40765625 2.10953125 6.71765625 1.76953125 9.09765625 C-1.23046875 9.09765625 -1.23046875 9.09765625 -2.91796875 7.84765625 C-4.23046875 6.09765625 -4.23046875 6.09765625 -4.23046875 2.09765625 C-5.22046875 1.76765625 -6.21046875 1.43765625 -7.23046875 1.09765625 C-4.46481493 0.17577164 -2.84763173 -0.02019597 0 0 Z " fill="#F1F3EE" transform="translate(19.23046875,38.90234375)"/>
<path d="M0 0 C2.625 -0.1875 2.625 -0.1875 5 0 C6.60355101 3.50776784 7.22036864 6.14354879 7 10 C4.03 10 1.06 10 -2 10 C-2.25 3.375 -2.25 3.375 0 0 Z " fill="#FAF2F1" transform="translate(109,28)"/>
<path d="M0 0 C2.8125 1.5625 2.8125 1.5625 5 3 C2.58998435 6.73552426 2.58998435 6.73552426 0.1875 7.8125 C-2.66911674 8.05735286 -5.20235158 7.57224627 -8 7 C-7.74438677 4.6568787 -7.40729228 2.32156597 -7 0 C-4.24779828 -1.37610086 -2.93781238 -0.81985462 0 0 Z " fill="#83A153" transform="translate(27,25)"/>
<path d="M0 0 C0.99773438 0.02320313 1.99546875 0.04640625 3.0234375 0.0703125 C4.52777344 0.09738281 4.52777344 0.09738281 6.0625 0.125 C6.83335938 0.14820313 7.60421875 0.17140625 8.3984375 0.1953125 C8.3984375 1.5153125 8.3984375 2.8353125 8.3984375 4.1953125 C1.4684375 5.6803125 1.4684375 5.6803125 -5.6015625 7.1953125 C-4.22595274 0.31726372 -4.22595274 0.31726372 0 0 Z " fill="#AEBA30" transform="translate(15.6015625,33.8046875)"/>
<path d="M0 0 C0.268125 0.78375 0.53625 1.5675 0.8125 2.375 C1.84814432 5.28114923 1.84814432 5.28114923 5 7 C5.66 5.02 6.32 3.04 7 1 C9.64 1 12.28 1 15 1 C15 1.33 15 1.66 15 2 C12.69 2.33 10.38 2.66 8 3 C7.01 5.97 6.02 8.94 5 12 C4.67 11.01 4.34 10.02 4 9 C2.00882592 8.30741771 0.0078864 7.64252365 -2 7 C-3.875 5.5625 -3.875 5.5625 -5 4 C-5 3.01 -5 2.02 -5 1 C-3 0 -3 0 0 0 Z " fill="#91875B" transform="translate(15,41)"/>
<path d="M0 0 C1.32176485 0.90325616 2.63215066 1.82317903 3.9375 2.75 C4.66839844 3.26046875 5.39929688 3.7709375 6.15234375 4.296875 C8.26465654 6.24395402 8.38664791 7.28135832 9 10 C9.99 10.66 10.98 11.32 12 12 C11.67 12.66 11.34 13.32 11 14 C7.535 12.02 7.535 12.02 4 10 C4.33 9.34 4.66 8.68 5 8 C3.02 7.01 1.04 6.02 -1 5 C-0.67 3.35 -0.34 1.7 0 0 Z " fill="#D8D7D2" transform="translate(26,20)"/>
<path d="M0 0 C-2.49064888 0.68707555 -4.37886292 1 -7 1 C-7.99 2.485 -7.99 2.485 -9 4 C-12.625 4.1875 -12.625 4.1875 -16 4 C-15.01 3.67 -14.02 3.34 -13 3 C-13 1.68 -13 0.36 -13 -1 C-8.15507803 -2.51403812 -4.7408989 -1.36602172 0 0 Z " fill="#73964D" transform="translate(37,35)"/>
<path d="M0 0 C2.76390737 2.40339772 3.04065919 3.16263678 4 7 C0.04 7 -3.92 7 -8 7 C-7.67 6.01 -7.34 5.02 -7 4 C-4.36 4 -1.72 4 1 4 C0.67 2.68 0.34 1.36 0 0 Z " fill="#D15356" transform="translate(157,55)"/>
<path d="M0 0 C4.19360449 0.67097672 7.40334352 2.8558394 11 5 C7.36804504 6.21065165 5.93468371 5.62784815 2.3125 4.5625 C1.31863281 4.27503906 0.32476563 3.98757812 -0.69921875 3.69140625 C-1.45847656 3.46324219 -2.21773437 3.23507813 -3 3 C-2.01 2.67 -1.02 2.34 0 2 C0 1.34 0 0.68 0 0 Z " fill="#35733C" transform="translate(29,30)"/>
<path d="M0 0 C0.33 0.99 0.66 1.98 1 3 C0.67 3.66 0.34 4.32 0 5 C3.3 5 6.6 5 10 5 C9.67 5.66 9.34 6.32 9 7 C5.04 7 1.08 7 -3 7 C-2.01 4.69 -1.02 2.38 0 0 Z " fill="#D15557" transform="translate(129,55)"/>
<path d="M0 0 C0.99 0 1.98 0 3 0 C3 1.65 3 3.3 3 5 C1.02 5.66 -0.96 6.32 -3 7 C-2.25 2.25 -2.25 2.25 0 0 Z " fill="#D0D22A" transform="translate(13,34)"/>
<path d="M0 0 C0.33 0.66 0.66 1.32 1 2 C3.97 2 6.94 2 10 2 C10.33 1.34 10.66 0.68 11 0 C11.33 1.32 11.66 2.64 12 4 C8.04 4 4.08 4 0 4 C0 2.68 0 1.36 0 0 Z " fill="#D15456" transform="translate(47,58)"/>
<path d="M0 0 C2.31 0 4.62 0 7 0 C6.34 0.66 5.68 1.32 5 2 C5.66 2.66 6.32 3.32 7 4 C4.125 4.125 4.125 4.125 1 4 C0.34 3.34 -0.32 2.68 -1 2 C-0.67 1.34 -0.34 0.68 0 0 Z " fill="#B0BF60" transform="translate(17,23)"/>
<path d="M0 0 C0 0.66 0 1.32 0 2 C-2.97 1.67 -5.94 1.34 -9 1 C-9.33 1.66 -9.66 2.32 -10 3 C-10 2.01 -10 1.02 -10 0 C-6.42355152 -1.2380014 -3.66305234 -0.74926071 0 0 Z " fill="#F4EFEC" transform="translate(53,45)"/>
<path d="M0 0 C2.97 0.495 2.97 0.495 6 1 C5.67 1.99 5.34 2.98 5 4 C2.9375 4.6875 2.9375 4.6875 1 5 C0.67 3.35 0.34 1.7 0 0 Z " fill="#558841" transform="translate(24,28)"/>
<path d="M0 0 C3.97132519 0.32199934 6.70665213 1.83579997 10 4 C7.18185434 5.40907283 5.82722796 4.50872691 2.875 3.5625 C1.96492188 3.27503906 1.05484375 2.98757812 0.1171875 2.69140625 C-0.58148437 2.46324219 -1.28015625 2.23507813 -2 2 C-1.34 1.34 -0.68 0.68 0 0 Z " fill="#5D8B44" transform="translate(22,24)"/>
<path d="M0 0 C1.32 0 2.64 0 4 0 C4 1.32 4 2.64 4 4 C2.35 4.33 0.7 4.66 -1 5 C-0.67 3.35 -0.34 1.7 0 0 Z " fill="#90A736" transform="translate(20,34)"/>
</svg>
